PathFileType	4	(X/Y/Z)	Patient4_TMGait_0pt2_02_left_08.trc.trc
DataRate	CameraRate	NumFrames	NumMarkers	Units	OrigDataRate	OrigDataStartFrame	OrigNumFrames
42.682926829268	42.682926829268	4	33	mm	42.682926829268	36	       141
Frame#	Time	R.Midfoot.Superior			Sacral			L.Shoulder			Chest			R.Shoulder			Neck			R.ASIS			L.ASIS			R.Thigh.Superior			R.Thigh.Lateral			R.Thigh.Inferior			R.Patella			L.Thigh.Superior			L.Thigh.Lateral			L.Thigh.Inferior			L.Patella			L.Shank.Superior			L.Shank.Lateral			L.Shank.Inferior			R.Shank.Superior			R.Shank.Lateral			R.Shank.Inferior			R.Heel			R.Midfoot.Lateral			R.Toe			L.Heel			L.Midfoot.Lateral			L.Midfoot.Superior			L.Toe			L.Elbow			L.Wrist			R.Elbow			R.Wrist			
		X1	Y1	Z1	X2	Y2	Z2	X3	Y3	Z3	X4	Y4	Z4	X5	Y5	Z5	X6	Y6	Z6	X7	Y7	Z7	X8	Y8	Z8	X9	Y9	Z9	X10	Y10	Z10	X11	Y11	Z11	X12	Y12	Z12	X13	Y13	Z13	X14	Y14	Z14	X15	Y15	Z15	X16	Y16	Z16	X17	Y17	Z17	X18	Y18	Z18	X19	Y19	Z19	X20	Y20	Z20	X21	Y21	Z21	X22	Y22	Z22	X23	Y23	Z23	X24	Y24	Z24	X25	Y25	Z25	X26	Y26	Z26	X27	Y27	Z27	X28	Y28	Z28	X29	Y29	Z29	X30	Y30	Z30	X31	Y31	Z31	X32	Y32	Z32	X33	Y33	Z33	

36	18.780000000000	915.042883765238	98.912249889873	598.648325820839	859.756212369583	1008.956403492319	545.955527374820	978.260243728078	1421.623588253402	302.950722065658	1129.271876300740	1350.488604197867	419.552399609546	1117.757360832123	1435.185699297192	605.680411566569	1018.468439062685	1487.472932647696	451.984702346088	1107.952830485845	928.117372444372	593.908466756827	1020.929737287826	956.930064444022	334.490658974389	1101.421682862469	716.071089351458	561.309726728978	1016.142525968050	618.216035383717	641.712888040235	1057.761901128059	555.573665674203	546.947508052163	1040.509156669314	464.274663013064	555.879494859366	1098.588558782921	765.353770732965	360.455261872968	1025.929706537282	634.659428490744	305.256725278421	1129.254970073015	571.825008935839	356.801411028683	1141.021321655182	501.140436357181	360.460806014788	1119.048532528031	427.717288684987	352.051103324036	1035.153516339125	308.254955183491	303.422061274193	1102.016078207845	197.872240031491	362.249080402315	988.671815383147	385.602704017097	572.740424186721	908.010863630380	303.475708236526	653.273576106543	908.908202848358	202.290507553235	587.845458296055	737.106471064754	60.783922241820	590.355570569552	829.657451278231	46.252856446711	650.591275068133	1032.884410538984	38.590924268371	609.956396762564	987.037685159849	38.421678236180	402.388554047309	1059.679256701197	36.388005422840	320.391589038918	1143.037302034530	97.882624932935	345.603137424172	1270.543745788072	47.994467944250	314.896185690464	809.549847320103	1106.629873750484	243.485309592247	777.660522863751	849.430306236221	284.086268904295	1337.337256392047	1179.050573859825	687.905676216294	1521.363227473313	1288.011674190135	550.682233909185	
37	18.803428571429	911.434138128411	99.564034133209	598.497312959093	859.816413818427	1009.655437869619	539.398311363988	980.060559820893	1422.884319887936	298.140537662194	1130.158235965570	1351.556499919276	415.783089369843	1116.929589569557	1435.723841989895	602.094794261552	1018.975854848686	1488.419222153889	447.741342846864	1107.636621133006	928.843547668498	589.045836752997	1022.402560920230	957.609963330869	329.056580825537	1100.546649526057	716.669410530186	557.588985902635	1014.710483703598	619.382919608354	638.206518490083	1056.927484194048	556.062358074687	544.276689079794	1039.256790674541	464.630530608977	553.751612754850	1098.988000277111	765.285045480412	355.836725935667	1025.714483384398	634.612634326010	301.205641935510	1128.466664057735	571.433776545665	353.330509403756	1139.814268588635	500.615510909408	357.560601798310	1117.383846913201	427.168483518741	349.675034222385	1032.874917469199	307.984004510238	301.516229707860	1098.468931606230	197.532476111788	361.465455336557	986.870327245707	386.427634908934	570.920497574551	905.392018216507	305.428260838306	651.767123395787	905.960441489564	203.635340854040	587.054560779711	733.147533767205	63.702856373160	590.207153526906	825.505125968299	48.046848284272	650.456806645553	1028.451925109220	38.232927664251	609.931397750105	982.504556357473	38.524432239669	402.375198864391	1055.103399760341	36.406565764978	320.340152514655	1138.539122705917	97.772421735487	345.509401086499	1266.058047620048	47.647008356797	314.787162466941	813.911393001501	1106.902421743594	233.986091373158	785.866357429154	848.730375439253	270.639116821352	1333.777871050711	1176.124899404167	684.326942726615	1523.123377392761	1280.166409531465	549.437093768995	
38	18.826857142857	907.927708466465	100.227196068007	598.326198135351	859.772560713606	1010.340145872621	532.730024190804	981.876454004774	1424.119252241268	293.331926852923	1130.910382644702	1352.731920036043	412.243798324396	1115.676093966120	1436.414934948195	598.680739291243	1019.266429381535	1489.415733189608	443.524058113301	1107.209475406716	929.660407578671	584.364763013105	1024.005218177927	958.307266415052	323.733039854917	1099.736506260475	717.383852797471	553.934350222710	1013.391870074338	620.571799639969	634.661308691125	1056.343530911080	556.622916922706	541.599990954185	1038.307200120704	464.965797534873	551.622197421905	1099.383579200044	765.071569424016	351.267030953544	1025.349230298552	634.513846508602	297.222096093665	1127.450866030270	570.929882712167	349.975249536059	1138.329525553796	500.025743925004	354.776899559827	1115.464337430236	426.595057521798	347.381267911237	1030.397912951671	307.659302553411	299.661760024022	1094.811360869056	197.187316644898	360.718001538028	985.320955794558	387.281543520154	569.094667990623	902.905888919335	307.453333730823	650.200237909108	903.158149082439	205.031989518030	586.256650240727	729.235082021158	66.720168992612	590.017383314164	821.390619358770	49.893908210903	650.302548072756	1024.045956905840	37.921489038622	609.902794053883	977.897327789193	38.593001504922	402.365756914597	1050.460348048156	36.409834861947	320.300724888698	1133.970711295539	97.643136229677	345.440104196409	1261.498874853520	47.293877119765	314.699272934923	819.007630606364	1106.751127999886	224.573091167010	795.118626394399	847.729421978963	257.377188565070	1329.018066160898	1172.672381187494	681.299017253337	1524.405418368994	1270.411207281443	549.269944893796	
39	18.850285714286	904.519629087821	100.873052761542	598.149695361477	859.622473022281	1011.027939468843	525.969036708958	983.692773126819	1425.319729788220	288.526862356027	1131.522042224266	1354.007740101905	408.917284694058	1114.025927377893	1437.258817354636	595.410283508330	1019.339763841813	1490.461648750679	439.319512697932	1106.660886299649	930.568533844410	579.863742385167	1025.720801222808	959.030519779506	318.535162469167	1098.987042434141	718.193975793583	550.371964460673	1012.156313099039	621.776848575118	631.105256719739	1055.967331983851	557.235995509093	538.938736881746	1037.635211962081	465.263166161425	549.526836179716	1099.780134260805	764.740283755843	346.796960715147	1024.870864865077	634.379735845705	293.328252605779	1126.240880007026	570.337629603564	346.771962362111	1136.604964321964	499.391344562113	352.140324882693	1113.325843766238	426.012626264753	345.194136975243	1027.760736886453	307.298769139815	297.867280110238	1091.072288647175	196.849491980136	360.020415309458	983.998024703498	388.156774415610	567.294010602551	900.522347763298	309.540194358460	648.595511545005	900.482013871576	206.465662277640	585.476500776949	725.361658121632	69.786349095610	589.793700331424	817.310734018433	51.747698860062	650.135374985250	1019.665693260297	37.668422175993	609.873686682446	973.232000691256	38.635086494737	402.357390986446	1045.767295411819	36.402416356810	320.272554014256	1129.347767502730	97.505508072860	345.394443202552	1256.883190465434	46.946064752190	314.634383133897	825.013148940263	1106.087761346091	215.300585995896	805.558373145339	846.345961784174	244.361504396528	1322.979044556771	1168.663504161940	678.819407465705	1525.047801234163	1258.362733224695	550.232947218261	
